<?xml version="1.0" encoding="UTF-8" standalone="no"?>
<!-- Created with Inkscape (http://www.inkscape.org/) -->

<svg
   width="197.10323mm"
   height="197.12492mm"
   viewBox="0 0 197.10323 197.12492"
   version="1.1"
   id="svg1"
   xml:space="preserve"
   inkscape:version="1.3.2 (091e20e, 2023-11-25, custom)"
   sodipodi:docname="biletowo.svg"
   xmlns:inkscape="http://www.inkscape.org/namespaces/inkscape"
   xmlns:sodipodi="http://sodipodi.sourceforge.net/DTD/sodipodi-0.dtd"
   xmlns="http://www.w3.org/2000/svg"
   xmlns:svg="http://www.w3.org/2000/svg"><sodipodi:namedview
     id="namedview1"
     pagecolor="#505050"
     bordercolor="#eeeeee"
     borderopacity="1"
     inkscape:showpageshadow="0"
     inkscape:pageopacity="0"
     inkscape:pagecheckerboard="0"
     inkscape:deskcolor="#505050"
     inkscape:document-units="mm"
     inkscape:zoom="0.7046647"
     inkscape:cx="500.23791"
     inkscape:cy="688.98016"
     inkscape:window-width="1680"
     inkscape:window-height="987"
     inkscape:window-x="1432"
     inkscape:window-y="-8"
     inkscape:window-maximized="1"
     inkscape:current-layer="layer1" /><defs
     id="defs1" /><g
     inkscape:label="Warstwa 1"
     inkscape:groupmode="layer"
     id="layer1"
     transform="translate(-5.4457856,-40.611792)"><path
       id="path1"
       mask="none"
       style="fill:#ffffff"
       d="m 154.79843,40.611793 -0.88005,0.77463 c -1.99762,1.758381 -4.75811,3.231567 -7.43624,3.96875 -2.25758,0.621406 -6.97246,0.619661 -9.25525,-0.0036 -2.19532,-0.599394 -4.56029,-1.796022 -6.54843,-3.312976 l -1.69809,-1.295528 -61.701667,61.701661 -61.7016596,61.70165 1.3384198,1.75235 c 1.509809,1.97669 2.658425,4.26201 3.2799028,6.52621 0.34815,1.26839 0.421213,2.08187 0.422713,4.68912 0.0017,2.86462 -0.04649,3.31368 -0.527616,4.88859 -0.8191688,2.6815 -2.1659418,5.14578 -3.8700476,7.08174 l -0.77463,0.88005 0.978235,0.96377 c 0.9163498,0.90257 1.0063028,0.94624 1.4185178,0.68523 1.673184,-1.05943 2.8064058,-1.21791 4.2560708,-0.59428 2.558124,1.10048 3.471907,3.87816 2.065507,6.27817 l -0.505912,0.86248 1.570963,1.57044 1.570447,1.57097 1.080554,-0.60978 c 1.70331,-0.96129 3.343275,-0.80284 4.851901,0.46922 1.707665,1.43988 2.021231,3.8023 0.752408,5.672 l -0.470772,0.69402 1.646411,1.63762 c 1.532691,1.52473 1.670626,1.61659 1.998845,1.32861 1.652187,-1.44964 4.075193,-1.31931 5.70146,0.30695 1.626268,1.62627 1.756595,4.04929 0.306958,5.70146 -0.28798,0.32822 -0.196127,0.46668 1.328601,1.99937 l 1.638143,1.64641 0.693498,-0.47078 c 1.869715,-1.26882 4.232125,-0.95577 5.672005,0.7519 1.272052,1.50861 1.431027,3.14911 0.469739,4.85241 l -0.609782,1.08056 1.570447,1.57044 1.570447,1.57045 0.862996,-0.50539 c 2.400003,-1.4064 5.177178,-0.49262 6.277653,2.0655 0.62363,1.44967 0.465671,2.58237 -0.593762,4.25556 -0.261101,0.41236 -0.217263,0.5026 0.695565,1.42937 l 0.9741,0.9896 0.335897,-0.32659 c 1.178669,-1.42127 5.293457,-3.719 7.959204,-4.44418 2.264045,-0.61577 6.983558,-0.61095 9.255249,0.009 2.195315,0.5994 4.560289,1.79603 6.548438,3.31298 l 1.698087,1.29553 61.701666,-61.70218 61.70166,-61.70166 -1.33842,-1.75183 c -1.50981,-1.97669 -2.65842,-4.26254 -3.2799,-6.52673 -0.34815,-1.2684 -0.42072,-2.08136 -0.42272,-4.6886 -0.002,-2.864611 0.0465,-3.313661 0.52762,-4.888587 0.81917,-2.681496 2.16594,-5.145772 3.87005,-7.081739 l 0.77514,-0.880049 -0.97875,-0.963766 c -0.91635,-0.902571 -1.00631,-0.946237 -1.41852,-0.685229 -2.20374,1.395375 -4.02333,1.275051 -5.67407,-0.375688 -1.51541,-1.515411 -1.74877,-3.428894 -0.6475,-5.308203 l 0.50591,-0.86248 -1.57045,-1.570963 -1.57096,-1.570447 -1.08056,0.609782 c -1.7033,0.961288 -3.34328,0.80283 -4.8519,-0.469222 -1.70766,-1.439881 -2.02123,-3.80229 -0.75241,-5.672005 l 0.47078,-0.694015 -1.64641,-1.637626 c -1.53269,-1.524727 -1.67063,-1.616582 -1.99885,-1.328601 -1.67529,1.46991 -4.10872,1.322291 -5.71541,-0.346749 -1.61891,-1.681745 -1.73935,-4.013757 -0.29301,-5.662187 0.28798,-0.328219 0.19613,-0.466154 -1.3286,-1.998844 l -1.63814,-1.646411 -0.6935,0.470772 c -3.77646,2.562775 -8.35602,-1.631193 -6.15053,-5.632731 l 0.59376,-1.076937 -1.55804,-1.558044 -1.55804,-1.558045 -0.863,0.505396 c -2.40001,1.406399 -5.17718,0.492617 -6.27765,-2.065507 -0.62363,-1.449665 -0.46567,-2.582886 0.59376,-4.256071 0.26101,-0.412215 0.21785,-0.502168 -0.68471,-1.418518 z m -21.43487,14.185181 c 0.87376,-0.0059 1.72405,0.05203 2.25723,0.175699 1.72543,0.400219 2.38715,2.165715 1.24127,3.311426 -0.53239,0.532353 -0.58554,0.542086 -2.95228,0.542086 -2.18887,0 -2.51186,0.04777 -3.51193,0.516764 -0.60573,0.284062 -1.70152,1.060255 -2.43499,1.72496 -1.16276,1.053736 -1.43424,1.208195 -2.1177,1.208195 -1.53539,0 -2.38235,-1.522131 -1.6428,-2.952275 0.78612,-1.520189 4.38879,-3.820783 6.76445,-4.319633 0.62606,-0.131466 1.52299,-0.201349 2.39675,-0.207222 z m 16.89613,0.01654 c 1.02622,-0.01326 1.97447,0.07826 2.80655,0.274402 1.23877,0.292005 3.46292,1.346211 4.27932,2.0283 1.0403,0.869161 1.16247,2.134487 0.29042,3.006535 -0.71409,0.714095 -1.85842,0.790204 -2.63963,0.1757 -1.7734,-1.39495 -4.23962,-1.845468 -7.00939,-1.280542 -0.91419,0.186457 -1.94277,0.281396 -2.30787,0.212906 -1.37247,-0.257476 -1.95276,-2.081449 -1.01079,-3.17655 0.37097,-0.431284 0.79086,-0.59239 2.31614,-0.887801 1.14461,-0.22169 2.24903,-0.339685 3.27525,-0.35295 z m 13.6989,9.631454 c 0.84192,0 0.87948,0.03094 5.14129,4.292761 4.21952,4.219473 4.29276,4.3071 4.29276,5.114933 0,0.568274 -0.13699,0.981095 -0.4439,1.337903 -0.66418,0.772157 -1.86106,0.881279 -2.62154,0.238745 -0.81216,-0.686197 -7.95013,-7.866556 -8.17728,-8.225855 -0.38546,-0.609684 -0.21371,-1.584117 0.38447,-2.182295 0.45831,-0.458313 0.74976,-0.576192 1.4242,-0.576192 z m -46.6142,1.577164 h 0.88935 c 0.68845,0 1.00239,0.112534 1.38751,0.497644 0.58321,0.583212 0.77457,1.350038 0.51263,2.055172 -0.22149,0.596254 -7.71666,8.189999 -8.48734,8.598958 -1.76209,0.935043 -3.56588,-0.866212 -2.6386,-2.634981 0.1535,-0.292799 2.09196,-2.329074 4.30775,-4.524788 z m 61.83963,13.495301 c 0.74889,0.127726 1.72385,0.997013 4.09536,3.416845 2.39859,2.447462 3.19066,3.394164 3.77083,4.507219 1.09576,2.102206 0.92354,3.504604 -0.49093,3.997688 -0.73947,0.257783 -0.69893,0.260047 -1.47639,-0.07803 -0.47934,-0.208441 -0.80056,-0.609793 -1.33222,-1.665531 -0.55544,-1.102949 -1.27949,-1.983888 -3.4985,-4.255038 -1.53904,-1.575206 -2.86769,-2.973327 -2.95279,-3.107304 -0.0851,-0.133977 -0.15613,-0.559511 -0.15813,-0.945678 -0.003,-0.779603 0.51143,-1.470547 1.32602,-1.780253 0.24266,-0.09226 0.46712,-0.132493 0.71675,-0.08992 z m -76.12507,1.585432 c 1.18325,-0.03174 2.27057,1.115273 2.01383,2.331641 -0.0987,0.467698 -1.13782,1.641571 -4.10311,4.633826 -2.184097,2.203957 -4.210797,4.133191 -4.503601,4.287593 -0.82973,0.437545 -1.50719,0.330122 -2.26653,-0.360184 -0.5504,-0.500369 -0.72771,-1.297315 -0.45268,-2.035535 0.3084,-0.827815 8.021411,-8.509968 8.803081,-8.76794 0.16931,-0.05588 0.33998,-0.08487 0.50901,-0.0894 z m 45.74605,2.798796 c 1.2135,-0.01277 2.49108,0.651402 3.83232,1.992643 l 6.13141,6.131409 c 1.34124,1.341242 2.01176,2.625166 2.01176,3.851444 0,1.200731 -0.67052,2.471958 -2.01176,3.813208 l -4.79041,4.789875 c -1.34124,1.34125 -2.6183,2.01811 -3.8318,2.03089 -1.21351,-0.0128 -2.49109,-0.68964 -3.83233,-2.03089 l -6.13141,-6.131395 c -1.34124,-1.341245 -2.01176,-2.61196 -2.01176,-3.812691 0,-1.226278 0.67052,-2.510203 2.01176,-3.851444 l 4.79041,-4.790406 c 1.34124,-1.341241 2.6183,-2.005417 3.83181,-1.992643 z m -0.76636,4.866886 c -0.38322,0 -0.76659,0.191947 -1.1498,0.575159 l -3.25717,3.257166 c -0.76642,0.766423 -0.76642,1.53266 0,2.299084 l 6.13141,6.131404 c 0.76642,0.76642 1.53266,0.76642 2.29908,0 l 3.25769,-3.257161 c 0.76642,-0.766424 0.76642,-1.533177 0,-2.299601 l -6.13141,-6.130892 c -0.38322,-0.383212 -0.76659,-0.575159 -1.1498,-0.575159 z m -12.0711,6.514848 9.77201,17.052705 -3.6406,3.6406 -10.63398,-6.03581 6.03529,10.6345 -3.6406,3.6406 -17.05271,-9.77201 3.73621,-3.73621 10.63397,6.60993 -6.32261,-10.92129 3.06545,-3.06597 10.92181,6.32313 -6.61045,-10.633965 z m -48.242023,0.968417 c 1.423389,-0.187558 2.754311,1.410692 2.01073,2.814303 -0.44246,0.83519 -8.019292,8.301825 -8.670271,8.544175 -0.683357,0.25442 -0.679043,0.25465 -1.473296,-0.0904 -0.761625,-0.33091 -1.2408,-1.29266 -1.080037,-2.16731 0.08001,-0.43531 1.155184,-1.6494 4.073136,-4.60023 2.180286,-2.204855 4.218601,-4.142065 4.529957,-4.305161 0.201336,-0.105466 0.40644,-0.168543 0.609781,-0.195337 z m 97.980583,1.955953 c 0.53999,0.0521 1.05523,0.36577 1.43764,0.93018 0.39178,0.57822 0.44339,0.901295 0.44339,2.769845 0,1.22938 0.16428,3.05469 0.39222,4.35736 0.43721,2.49867 0.50989,4.70743 0.17622,5.35988 -0.12112,0.23684 -0.40951,0.58419 -0.64079,0.77153 -0.68364,0.55377 -1.82882,0.45011 -2.50579,-0.22686 -0.51827,-0.51832 -0.57619,-0.70505 -0.57619,-1.85364 0,-0.70235 -0.17743,-2.31474 -0.39429,-3.58324 -0.25522,-1.49288 -0.3943,-3.20657 -0.3943,-4.85862 0,-2.435275 0.0219,-2.574165 0.47594,-3.028235 0.48109,-0.48108 1.04596,-0.6903 1.58595,-0.6382 z M 72.860275,111.39092 c 1.254741,0.0202 2.192571,1.16439 1.869653,2.48822 -0.08456,0.34667 -1.640308,2.05274 -4.314465,4.7315 l -4.182174,4.18941 H 65.33877 c -1.229976,0 -1.953886,-0.72959 -1.953886,-1.96888 0,-0.86048 0.01164,-0.87418 4.189409,-5.05447 2.694318,-2.69593 4.382817,-4.23853 4.731494,-4.32273 0.189429,-0.0457 0.375239,-0.0659 0.554488,-0.0631 z m 43.218555,5.23741 c 1.2135,-0.0128 2.49108,0.6514 3.83232,1.99264 l 6.1309,6.13141 c 1.34124,1.34124 2.01228,2.62465 2.01228,3.85093 0,1.20073 -0.67104,2.47196 -2.01228,3.8132 l -4.78989,4.78989 c -1.34124,1.34124 -2.61882,2.01863 -3.83233,2.0314 -1.2135,-0.0128 -2.49056,-0.69016 -3.8318,-2.0314 l -6.13141,-6.13141 c -1.34124,-1.34124 -2.01177,-2.61195 -2.01177,-3.81268 0,-1.22628 0.67053,-2.51021 2.01177,-3.85145 l 4.78989,-4.78989 c 1.34124,-1.34124 2.61882,-2.00541 3.83232,-1.99264 z m 64.49115,0.94361 c 1.24774,-0.0197 2.32103,1.26516 1.9017,2.53576 -0.25409,0.76989 -7.93437,8.49241 -8.74676,8.79482 -0.30524,0.11364 -0.66011,0.19968 -0.78858,0.19068 -1.27883,-0.0852 -2.26383,-1.68289 -1.70946,-2.77295 0.43943,-0.86406 8.14068,-8.43821 8.80153,-8.65632 0.18152,-0.0599 0.36333,-0.0892 0.54157,-0.092 z m -65.25751,3.92276 c -0.38321,0 -0.76659,0.19195 -1.1498,0.57516 l -3.25717,3.25716 c -0.76642,0.76643 -0.76642,1.53267 0,2.29909 l 6.13141,6.13141 c 0.76642,0.76642 1.53266,0.76642 2.29909,0 l 3.25716,-3.25717 c 0.76642,-0.76642 0.76642,-1.53266 0,-2.29908 l -6.13141,-6.13141 c -0.38321,-0.38321 -0.76607,-0.57516 -1.14928,-0.57516 z m -57.53913,5.06274 c 1.019215,0.006 1.866036,0.79792 1.866036,1.98076 0,0.83081 -0.04608,0.88635 -4.289143,5.14129 -4.266065,4.27803 -4.294044,4.30103 -5.141289,4.30103 -1.528698,0 -2.465538,-1.48098 -1.785937,-2.82257 0.311391,-0.61471 7.66009,-7.99087 8.298718,-8.32973 0.35309,-0.18735 0.711877,-0.27274 1.051615,-0.27078 z m 45.08459,1.83555 2.68252,2.682 -4.02352,4.02405 10.72958,10.73009 -3.44889,3.44889 -10.730097,-10.7301 -4.023524,4.02353 -2.682528,-2.68252 z m 62.3564,4.32428 c 0.57222,-0.0475 1.24359,0.17396 1.62626,0.58394 0.60355,0.64663 0.72435,1.38126 0.35502,2.15956 -0.40743,0.85861 -7.91836,8.34076 -8.65116,8.61808 -0.68245,0.25826 -0.67749,0.25872 -1.47277,-0.0868 -0.8571,-0.37239 -1.33269,-1.44084 -1.03818,-2.3332 0.2181,-0.66087 7.79227,-8.36209 8.65632,-8.80153 0.15437,-0.0785 0.33377,-0.12421 0.52451,-0.14004 z m -74.427501,7.74681 2.68252,2.68253 -7.185604,7.18509 2.586922,2.58641 5.652372,-5.65237 2.682524,2.68252 -5.652372,5.65237 2.778128,2.77864 7.185611,-7.18561 2.682,2.68253 -10.633981,10.63449 -13.412096,-13.41262 z m -48.343819,1.26194 c 0.576127,0 0.973959,0.14433 1.409216,0.51057 0.515634,0.43388 0.606682,0.64668 0.606682,1.41851 v 0.90796 l -3.992005,4.01784 c -2.195713,2.20999 -4.231988,4.14456 -4.524788,4.29896 -1.764954,0.93073 -3.565571,-0.86887 -2.638599,-2.63704 0.153501,-0.2928 2.091961,-2.32857 4.307748,-4.52428 3.913948,-3.87849 4.05174,-3.99252 4.831746,-3.99252 z m 107.89419,6.13761 c 1.25191,0.0153 2.19311,1.16109 1.87276,2.48771 -0.0842,0.34868 -1.6268,2.03717 -4.32274,4.73149 l -4.19199,4.18941 h -0.89607 c -1.43828,0 -2.26737,-1.07204 -1.90582,-2.46445 0.20401,-0.78567 8.11619,-8.68679 8.89093,-8.87853 0.18875,-0.0467 0.37409,-0.0678 0.55293,-0.0656 z m -122.869503,8.94984 c 0.245733,0.008 0.49399,0.0819 0.782898,0.20258 0.772237,0.32266 1.301558,1.38531 1.099674,2.20865 -0.07633,0.31127 -1.06974,1.50189 -2.341976,2.80758 -2.369758,2.43208 -2.893063,3.24004 -3.339848,5.15524 -0.169306,0.72575 -0.470161,1.40587 -0.738456,1.66966 -0.644084,0.63326 -1.318508,0.73674 -2.125968,0.32608 -1.287458,-0.6548 -1.434753,-1.75363 -0.580327,-4.32997 0.605555,-1.82592 1.771595,-3.47447 4.101042,-5.79964 1.694503,-1.69139 2.405762,-2.26356 3.142961,-2.24018 z m 44.350264,2.61948 10.729578,10.7301 6.993888,-6.99389 2.682524,2.68252 -10.442774,10.44278 -13.412101,-13.41262 z m 63.307249,3.58531 c 1.57712,0 2.45938,1.5053 1.70998,2.91766 -0.33887,0.63862 -7.71502,7.98681 -8.32973,8.2982 -1.3416,0.6796 -2.82205,-0.25724 -2.82205,-1.78594 0,-0.84725 0.023,-0.87471 4.30103,-5.14077 4.25494,-4.24304 4.30996,-4.28915 5.14077,-4.28915 z m -68.481093,1.58802 2.682523,2.68252 -1.724442,1.72445 8.047571,8.04757 1.724442,-1.72444 2.682524,2.68252 -6.89777,6.89777 -2.682524,-2.68252 1.724443,-1.72445 -8.047571,-8.04757 -1.724443,1.72444 -2.682523,-2.68252 z m -8.641333,10.36578 c 1.149636,-0.0256 2.305596,0.54291 3.468005,1.70532 0.766424,0.76642 1.226476,1.55856 1.379761,2.37608 0.140511,0.80475 0.06384,1.5456 -0.22996,2.2226 1.315694,-0.75365 2.708027,-0.76634 4.177006,-0.0382 0.523723,0.26825 1.047757,0.66432 1.57148,1.18804 1.251826,1.25183 1.877405,2.46491 1.877405,3.64009 0,1.17519 -0.625579,2.38878 -1.877405,3.64061 l -8.23929,8.23929 -13.412618,-13.41262 7.664648,-7.66413 c 1.251826,-1.25183 2.458558,-1.88427 3.620968,-1.89704 z m -35.336861,1.2578 c 0.445947,0.0617 0.867243,0.25006 1.154451,0.54984 0.47318,0.4939 0.529684,0.70227 0.529684,1.95182 0,0.76942 -0.177431,2.4367 -0.394292,3.7052 -0.472174,2.76192 -0.489712,3.71419 -0.09715,5.22914 0.343404,1.32523 0.207717,1.89368 -0.604615,2.53266 -0.728663,0.57318 -1.685397,0.54227 -2.422591,-0.078 -0.459911,-0.38699 -0.66116,-0.80234 -0.90227,-1.86242 -0.413067,-1.81611 -0.391429,-3.43635 0.08372,-6.21564 0.21686,-1.2685 0.394291,-2.69952 0.394291,-3.18017 0,-1.06826 0.421517,-2.13654 0.956014,-2.42259 0.386096,-0.20664 0.856816,-0.2715 1.302763,-0.20981 z m 97.276757,1.96836 c 1.18388,0 1.99471,0.80732 1.99471,1.98592 0,0.8194 -0.0658,0.89959 -3.99201,4.86172 -2.19572,2.21579 -4.232,4.15425 -4.52479,4.30775 -0.67212,0.35237 -1.2911,0.34382 -1.9761,-0.0279 -0.94567,-0.5132 -1.21216,-1.56539 -0.66094,-2.61069 0.1544,-0.2928 2.08897,-2.32857 4.29896,-4.52427 3.96687,-3.94122 4.02885,-3.99252 4.86017,-3.99252 z m -62.687137,1.73632 c -0.383212,0 -0.766072,0.19195 -1.149284,0.57516 l -3.257683,3.25717 2.682524,2.68252 3.257682,-3.25716 c 0.766424,-0.76643 0.766424,-1.53318 0,-2.2996 l -0.383439,-0.38293 c -0.383212,-0.38321 -0.766588,-0.57516 -1.1498,-0.57516 z m 5.939689,4.79041 c -0.383212,0 -0.766072,0.19143 -1.149284,0.57464 l -3.832324,3.83233 2.682523,2.68252 3.832325,-3.83233 c 0.766423,-0.76642 0.766423,-1.53266 0,-2.29908 l -0.38344,-0.38344 c -0.383212,-0.38321 -0.766588,-0.57464 -1.1498,-0.57464 z m 42.038268,8.56795 c 0.86721,0.14495 1.52393,0.92366 1.52393,1.98799 v 0.91674 l -3.99252,4.0287 c -2.19571,2.21579 -4.231467,4.15425 -4.524267,4.30775 -0.99682,0.52258 -2.030334,0.24154 -2.588474,-0.70332 -0.38265,-0.64776 -0.41802,-1.23424 -0.11111,-1.8402 0.41807,-0.82542 8.136091,-8.40887 8.771561,-8.61859 0.31938,-0.10541 0.6318,-0.12738 0.92088,-0.0791 z m -76.251684,1.56166 c 0.180249,-0.009 0.345486,0.007 0.47749,0.0563 0.587231,0.21723 8.68124,8.29437 8.914185,8.89558 0.221108,0.57065 -0.07726,1.60183 -0.60048,2.07533 -0.575384,0.52072 -1.601228,0.58623 -2.284098,0.14572 -1.073547,-0.69252 -8.342902,-8.18513 -8.48062,-8.74106 -0.151105,-0.60997 0.02076,-1.29792 0.444934,-1.78129 0.312821,-0.35648 0.987844,-0.62232 1.528589,-0.65061 z m 60.909977,13.57695 c 0.632742,0.10226 1.289839,0.53922 1.590084,1.11983 0.608654,1.17701 0.359789,1.55055 -3.903121,5.85081 -2.172459,2.19149 -4.237734,4.12072 -4.589384,4.28759 -0.92614,0.43949 -1.427076,0.36106 -2.202966,-0.34468 -0.590834,-0.53742 -0.758308,-1.51891 -0.380855,-2.23552 0.500273,-0.94977 8.242,-8.50442 8.875944,-8.66149 0.191334,-0.0474 0.399385,-0.0506 0.610298,-0.0165 z m -45.79462,1.56166 c 0.17857,-7.1e-4 0.354463,0.0287 0.521415,0.0904 0.607453,0.22471 8.695938,8.26399 8.92762,8.87336 0.213293,0.561 -0.05703,1.64481 -0.502295,2.01435 -0.378094,0.31379 -1.303223,0.52985 -1.882055,0.43925 -0.547414,-0.0857 -8.311172,-7.64133 -8.789645,-8.554 -0.410134,-0.78232 -0.342298,-1.43243 0.219108,-2.09962 0.410742,-0.4881 0.970142,-0.76162 1.505852,-0.76378 z m 21.949564,8.82996 c 3.315562,-0.0115 6.384997,0.35327 7.403683,0.88005 1.155969,0.59777 1.352539,2.11132 0.398425,3.06544 -0.65958,0.65958 -1.011687,0.6846 -3.464905,0.2465 -1.136085,-0.20281 -2.624988,-0.25899 -5.323189,-0.19999 -2.139652,0.0468 -3.922084,0.002 -4.156852,-0.10542 -1.123257,-0.51175 -1.330377,-2.21543 -0.378272,-3.10989 0.649683,-0.61034 1.740113,-0.76359 5.52111,-0.77669 z"
       inkscape:export-filename="biletowo-export.svg"
       inkscape:export-xdpi="95"
       inkscape:export-ydpi="95" /></g></svg>
