<svg width="42" height="42" viewBox="0 0 42 42" fill="none" xmlns="http://www.w3.org/2000/svg">
<path d="M31.6543 0L31.4678 0.164177C31.0444 0.536855 30.4593 0.849087 29.8917 1.00533C29.4132 1.13703 28.414 1.13666 27.9301 1.00457C27.4648 0.877528 26.9636 0.62391 26.5422 0.302402L26.1823 0.0278229L13.1051 13.1051L0.0278193 26.1823L0.311488 26.5537C0.631482 26.9727 0.874924 27.457 1.00664 27.9369C1.08043 28.2058 1.09592 28.3782 1.09623 28.9308C1.09659 29.5379 1.08638 29.6331 0.984409 29.9669C0.810791 30.5352 0.525352 31.0575 0.164178 31.4678L0 31.6543L0.20733 31.8586C0.401545 32.0499 0.42061 32.0591 0.507976 32.0038C0.862596 31.7793 1.10278 31.7457 1.41002 31.8779C1.9522 32.1111 2.14587 32.6998 1.84779 33.2085L1.74057 33.3913L2.07352 33.7241L2.40637 34.0571L2.63539 33.9278C2.99639 33.7241 3.34397 33.7577 3.66371 34.0273C4.02564 34.3324 4.0921 34.8331 3.82318 35.2294L3.7234 35.3765L4.07235 35.7236C4.39719 36.0468 4.42643 36.0662 4.49599 36.0052C4.84616 35.6979 5.3597 35.7256 5.70438 36.0702C6.04906 36.4149 6.07668 36.9285 5.76944 37.2786C5.7084 37.3482 5.72787 37.3775 6.05102 37.7024L6.39822 38.0513L6.5452 37.9515C6.94147 37.6826 7.44217 37.749 7.74734 38.1109C8.01695 38.4306 8.05064 38.7783 7.8469 39.1393L7.71766 39.3684L8.05051 39.7012L8.38336 40.034L8.56626 39.9269C9.07493 39.6289 9.66353 39.8225 9.89677 40.3647C10.0289 40.672 9.99546 40.912 9.77092 41.2666C9.71559 41.354 9.72488 41.3732 9.91834 41.5696L10.1248 41.7793L10.196 41.7101C10.4458 41.4089 11.3179 40.9219 11.8829 40.7682C12.3627 40.6377 13.363 40.6387 13.8445 40.7701C14.3098 40.8971 14.811 41.1508 15.2324 41.4723L15.5923 41.7468L28.6695 28.6695L41.7468 15.5922L41.4631 15.2209C41.1431 14.802 40.8997 14.3175 40.768 13.8376C40.6942 13.5688 40.6788 13.3965 40.6784 12.8439C40.678 12.2368 40.6882 12.1416 40.7902 11.8078C40.9638 11.2395 41.2493 10.7172 41.6104 10.3069L41.7747 10.1204L41.5673 9.91609C41.3731 9.7248 41.354 9.71555 41.2666 9.77087C40.7996 10.0666 40.4139 10.0411 40.0641 9.69124C39.7429 9.37006 39.6934 8.96451 39.9268 8.5662L40.034 8.3834L39.7012 8.05045L39.3682 7.7176L39.1392 7.84684C38.7782 8.05058 38.4306 8.017 38.1109 7.7474C37.749 7.44222 37.6825 6.94153 37.9514 6.54525L38.0512 6.39816L37.7023 6.05108C37.3774 5.72792 37.3482 5.70845 37.2786 5.76949C36.9236 6.08103 36.4078 6.04974 36.0673 5.696C35.7242 5.33956 35.6986 4.84531 36.0052 4.49593C36.0662 4.42637 36.0467 4.39713 35.7236 4.07229L35.3764 3.72335L35.2294 3.82312C34.429 4.36629 33.4584 3.4774 33.9258 2.6293L34.0517 2.40105L33.7215 2.07084L33.3913 1.74062L33.2084 1.84773C32.6997 2.14581 32.1111 1.95214 31.8778 1.40996C31.7457 1.10272 31.7792 0.862536 32.0037 0.507916C32.059 0.42055 32.0499 0.401485 31.8586 0.20727L31.6543 0ZM27.1113 3.00646C27.2965 3.0052 27.4767 3.01748 27.5897 3.04369C27.9554 3.12852 28.0957 3.5027 27.8528 3.74553C27.74 3.85836 27.7287 3.86042 27.2271 3.86042C26.7632 3.86042 26.6947 3.87054 26.4828 3.96994C26.3544 4.03015 26.1221 4.19466 25.9667 4.33554C25.7202 4.55887 25.6627 4.59161 25.5179 4.59161C25.1924 4.59161 25.0129 4.269 25.1697 3.96589C25.3363 3.6437 26.0998 3.1561 26.6034 3.05037C26.736 3.02251 26.9261 3.0077 27.1113 3.00646ZM30.6923 3.00996C30.9098 3.00715 31.1108 3.02655 31.2872 3.06812C31.5497 3.13001 32.0211 3.35344 32.1942 3.498C32.4146 3.68222 32.4405 3.95039 32.2557 4.13522C32.1044 4.28657 31.8618 4.3027 31.6963 4.17246C31.3204 3.87681 30.7977 3.78132 30.2107 3.90105C30.0169 3.94057 29.7989 3.9607 29.7215 3.94618C29.4306 3.89161 29.3076 3.50503 29.5073 3.27293C29.5859 3.18152 29.6749 3.14738 29.9982 3.08477C30.2408 3.03778 30.4748 3.01277 30.6923 3.00996ZM33.5957 5.05128C33.7742 5.05128 33.7821 5.05784 34.6854 5.96111C35.5797 6.8554 35.5952 6.87397 35.5952 7.04518C35.5952 7.16562 35.5662 7.25312 35.5011 7.32874C35.3604 7.4924 35.1067 7.51552 34.9455 7.37934C34.7734 7.23391 33.2605 5.71208 33.2124 5.63593C33.1307 5.50671 33.1671 5.30018 33.2939 5.1734C33.391 5.07627 33.4528 5.05128 33.5957 5.05128ZM23.7162 5.38555H23.9047C24.0506 5.38555 24.1171 5.4094 24.1987 5.49103C24.3223 5.61463 24.3629 5.77716 24.3074 5.92661C24.2604 6.05298 22.6719 7.66242 22.5085 7.7491C22.1351 7.94727 21.7528 7.56551 21.9493 7.19063C21.9818 7.12857 22.3927 6.697 22.8623 6.23163L23.7162 5.38555ZM36.8227 8.24579C36.9814 8.27286 37.188 8.4571 37.6907 8.96997C38.199 9.4887 38.3669 9.68934 38.4899 9.92525C38.7221 10.3708 38.6856 10.668 38.3858 10.7725C38.2291 10.8272 38.2377 10.8276 38.0729 10.756C37.9713 10.7118 37.9032 10.6268 37.7905 10.403C37.6728 10.1692 37.5194 9.98252 37.0491 9.50117C36.7229 9.16731 36.4413 8.87099 36.4232 8.84259C36.4052 8.8142 36.3901 8.72401 36.3897 8.64216C36.3891 8.47693 36.4981 8.33049 36.6708 8.26485C36.7222 8.2453 36.7698 8.23677 36.8227 8.24579ZM20.6885 8.58182C20.9392 8.57509 21.1697 8.81819 21.1153 9.07599C21.0944 9.17512 20.8741 9.42391 20.2457 10.0581C19.7828 10.5252 19.3532 10.9341 19.2911 10.9668C19.1153 11.0596 18.9717 11.0368 18.8108 10.8905C18.6941 10.7844 18.6565 10.6155 18.7148 10.4591C18.7802 10.2836 20.4149 8.65544 20.5806 8.60076C20.6165 8.58892 20.6526 8.58278 20.6885 8.58182ZM30.384 9.175C30.6412 9.1723 30.912 9.31306 31.1963 9.59733L32.4958 10.8968C32.78 11.1811 32.9222 11.4532 32.9222 11.7131C32.9222 11.9676 32.78 12.237 32.4958 12.5213L31.4805 13.5365C31.1962 13.8208 30.9256 13.9642 30.6684 13.9669C30.4112 13.9642 30.1404 13.8208 29.8561 13.5365L28.5566 12.237C28.2723 11.9527 28.1302 11.6834 28.1302 11.4289C28.1302 11.169 28.2723 10.8969 28.5566 10.6126L29.5719 9.59733C29.8562 9.31306 30.1268 9.1723 30.384 9.175ZM30.2216 10.2065C30.1404 10.2065 30.0591 10.2472 29.9779 10.3284L29.2876 11.0187C29.1251 11.1812 29.1251 11.3436 29.2876 11.506L30.5871 12.8055C30.7495 12.968 30.9119 12.968 31.0744 12.8055L31.7648 12.1152C31.9273 11.9528 31.9273 11.7902 31.7648 11.6278L30.4653 10.3284C30.3841 10.2472 30.3028 10.2065 30.2216 10.2065ZM27.6632 11.5873L29.7343 15.2015L28.9627 15.9731L26.7089 14.6938L27.9881 16.9478L27.2165 17.7194L23.6023 15.6482L24.3941 14.8564L26.6479 16.2573L25.3079 13.9426L25.9576 13.2928L28.2724 14.6329L26.8714 12.3792L27.6632 11.5873ZM17.4386 11.7925C17.7403 11.7528 18.0224 12.0915 17.8648 12.389C17.771 12.566 16.1652 14.1485 16.0272 14.1999C15.8824 14.2538 15.8833 14.2539 15.7149 14.1807C15.5535 14.1106 15.452 13.9068 15.486 13.7214C15.503 13.6291 15.7309 13.3718 16.3493 12.7464C16.8114 12.2791 17.2434 11.8685 17.3094 11.8339C17.3521 11.8116 17.3955 11.7982 17.4386 11.7925ZM38.205 12.2071C38.3194 12.2181 38.4286 12.2846 38.5097 12.4042C38.5927 12.5268 38.6037 12.5953 38.6037 12.9913C38.6037 13.2518 38.6385 13.6387 38.6868 13.9148C38.7794 14.4444 38.7948 14.9125 38.7241 15.0508C38.6985 15.101 38.6373 15.1746 38.5883 15.2143C38.4434 15.3317 38.2007 15.3097 38.0572 15.1662C37.9474 15.0564 37.9351 15.0168 37.9351 14.7734C37.9351 14.6245 37.8975 14.2828 37.8515 14.0139C37.7975 13.6975 37.768 13.3343 37.768 12.9842C37.768 12.468 37.7726 12.4386 37.8689 12.3423C37.9708 12.2404 38.0905 12.196 38.205 12.2071ZM14.2881 15.0012C14.554 15.0055 14.7528 15.248 14.6843 15.5285C14.6664 15.602 14.3367 15.9636 13.7699 16.5313L12.8835 17.4193H12.6939C12.4332 17.4193 12.2798 17.2646 12.2798 17.002C12.2798 16.8196 12.2823 16.8167 13.1677 15.9307C13.7388 15.3593 14.0966 15.0324 14.1705 15.0145C14.2107 15.0048 14.2501 15.0006 14.2881 15.0012ZM23.4479 16.1112C23.7051 16.1085 23.9759 16.2493 24.2602 16.5335L25.5596 17.833C25.8438 18.1173 25.9861 18.3893 25.9861 18.6492C25.9861 18.9037 25.8438 19.1731 25.5596 19.4574L24.5444 20.4726C24.2601 20.7569 23.9894 20.9004 23.7322 20.9031C23.475 20.9004 23.2043 20.7569 22.92 20.4726L21.6205 19.1731C21.3363 18.8888 21.1941 18.6195 21.1941 18.365C21.1941 18.1051 21.3363 17.833 21.6205 17.5487L22.6357 16.5335C22.92 16.2493 23.1907 16.1085 23.4479 16.1112ZM37.1164 16.3112C37.3809 16.307 37.6083 16.5793 37.5195 16.8486C37.4656 17.0118 35.8378 18.6485 35.6656 18.7126C35.601 18.7367 35.5257 18.755 35.4985 18.753C35.2275 18.735 35.0187 18.3964 35.1362 18.1653C35.2293 17.9822 36.8616 16.3769 37.0016 16.3307C37.0401 16.318 37.0786 16.3118 37.1164 16.3112ZM23.2855 17.1426C23.2043 17.1426 23.123 17.1833 23.0418 17.2645L22.3515 17.9548C22.1891 18.1173 22.1891 18.2797 22.3515 18.4421L23.651 19.7416C23.8134 19.9041 23.9758 19.9041 24.1383 19.7416L24.8286 19.0513C24.991 18.8888 24.991 18.7264 24.8286 18.564L23.5291 17.2645C23.4479 17.1833 23.3667 17.1426 23.2855 17.1426ZM11.0905 18.2156C11.3065 18.2169 11.486 18.3847 11.486 18.6354C11.486 18.8115 11.4762 18.8233 10.5769 19.7251C9.67275 20.6318 9.66682 20.6367 9.48726 20.6367C9.16326 20.6367 8.9647 20.3228 9.10874 20.0384C9.17474 19.9081 10.7322 18.3448 10.8676 18.273C10.9424 18.2333 11.0185 18.2152 11.0905 18.2156ZM20.6459 18.6046L21.2144 19.1731L20.3616 20.0259L22.6357 22.3001L21.9047 23.0311L19.6306 20.7569L18.7778 21.6097L18.2093 21.0411L20.6459 18.6046ZM33.8619 19.5211C33.9832 19.5111 34.1255 19.558 34.2066 19.6449C34.3345 19.782 34.3601 19.9377 34.2818 20.1026C34.1955 20.2846 32.6036 21.8704 32.4482 21.9292C32.3036 21.9839 32.3047 21.984 32.1361 21.9108C31.9545 21.8318 31.8536 21.6054 31.9161 21.4163C31.9623 21.2762 33.5676 19.644 33.7507 19.5508C33.7834 19.5342 33.8215 19.5245 33.8619 19.5211ZM18.0875 21.163L18.656 21.7316L17.1331 23.2544L17.6814 23.8026L18.8793 22.6046L19.4479 23.1731L18.2499 24.3711L18.8387 24.96L20.3616 23.4371L20.9301 24.0056L18.6763 26.2596L15.8337 23.4168L18.0875 21.163ZM7.84132 21.4305C7.96342 21.4305 8.04774 21.4611 8.13999 21.5387C8.24928 21.6307 8.26857 21.6758 8.26857 21.8393V22.0318L7.42249 22.8833C6.95713 23.3517 6.52555 23.7618 6.4635 23.7945C6.08943 23.9917 5.7078 23.6103 5.90426 23.2356C5.9368 23.1735 6.34764 22.742 6.81726 22.2767C7.6468 21.4547 7.676 21.4305 7.84132 21.4305ZM30.7088 22.7313C30.9741 22.7346 31.1736 22.9774 31.1057 23.2586C31.0879 23.3325 30.7609 23.6903 30.1895 24.2614L29.3011 25.1493H29.1111C28.8063 25.1493 28.6306 24.9221 28.7072 24.627C28.7505 24.4605 30.4274 22.7859 30.5916 22.7452C30.6316 22.7353 30.6709 22.7309 30.7088 22.7313ZM4.6674 24.6282C4.71948 24.6299 4.7721 24.6455 4.83333 24.6711C4.997 24.7395 5.10919 24.9647 5.0664 25.1392C5.05022 25.2052 4.83967 25.4575 4.57003 25.7343C4.06778 26.2497 3.95687 26.421 3.86217 26.8269C3.82629 26.9807 3.76252 27.1249 3.70566 27.1808C3.56915 27.315 3.42621 27.3369 3.25508 27.2499C2.98221 27.1111 2.95099 26.8782 3.13208 26.3322C3.26042 25.9452 3.50756 25.5958 4.00127 25.103C4.36041 24.7445 4.51115 24.6232 4.6674 24.6282ZM14.0671 25.1834L16.3412 27.4575L17.8235 25.9752L18.3921 26.5438L16.1788 28.757L13.3362 25.9143L14.0671 25.1834ZM27.4847 25.9432C27.819 25.9432 28.0059 26.2623 27.8471 26.5616C27.7753 26.697 26.212 28.2544 26.0817 28.3204C25.7973 28.4644 25.4836 28.2659 25.4836 27.9419C25.4836 27.7623 25.4884 27.7565 26.3951 26.8523C27.2969 25.953 27.3086 25.9432 27.4847 25.9432ZM12.9706 26.2798L13.5391 26.8484L13.1736 27.2138L14.8793 28.9195L15.2448 28.554L15.8133 29.1225L14.3514 30.5845L13.7828 30.0159L14.1483 29.6504L12.4427 27.9448L12.0772 28.3103L11.5086 27.7417L12.9706 26.2798ZM11.1391 28.4768C11.3828 28.4713 11.6278 28.5918 11.8741 28.8382C12.0366 29.0006 12.1341 29.1685 12.1666 29.3418C12.1963 29.5124 12.1801 29.6694 12.1178 29.8129C12.3967 29.6531 12.6918 29.6504 13.0031 29.8048C13.1141 29.8616 13.2252 29.9456 13.3362 30.0566C13.6015 30.3219 13.7341 30.579 13.7341 30.8281C13.7341 31.0771 13.6015 31.3343 13.3362 31.5997L11.5899 33.3459L8.7472 30.5032L10.3717 28.8788C10.637 28.6135 10.8927 28.4795 11.1391 28.4768ZM3.64969 28.7434C3.74421 28.7564 3.8335 28.7964 3.89437 28.8599C3.99466 28.9646 4.00664 29.0087 4.00664 29.2736C4.00664 29.4366 3.96903 29.79 3.92307 30.0589C3.82299 30.6442 3.81928 30.8461 3.90248 31.1671C3.97526 31.448 3.9465 31.5685 3.77433 31.7039C3.6199 31.8254 3.41712 31.8189 3.26088 31.6874C3.16341 31.6054 3.12075 31.5173 3.06965 31.2927C2.9821 30.9077 2.98669 30.5643 3.08739 29.9753C3.13336 29.7064 3.17096 29.4031 3.17096 29.3013C3.17096 29.0749 3.2603 28.8485 3.37358 28.7878C3.45541 28.744 3.55518 28.7303 3.64969 28.7434ZM24.2669 29.1605C24.5178 29.1605 24.6896 29.3316 24.6896 29.5814C24.6896 29.7551 24.6757 29.7721 23.8435 30.6118C23.3782 31.0815 22.9466 31.4923 22.8845 31.5248C22.7421 31.5995 22.6109 31.5977 22.4657 31.5189C22.2653 31.4102 22.2088 31.1872 22.3256 30.9656C22.3584 30.9036 22.7684 30.4721 23.2368 30.0067C24.0775 29.1714 24.0907 29.1605 24.2669 29.1605ZM10.9807 29.5285C10.8995 29.5285 10.8184 29.5692 10.7372 29.6504L10.0467 30.3408L10.6153 30.9093L11.3057 30.219C11.4681 30.0565 11.4681 29.894 11.3057 29.7316L11.2244 29.6504C11.1432 29.5692 11.062 29.5285 10.9807 29.5285ZM12.2396 30.5438C12.1584 30.5438 12.0772 30.5844 11.996 30.6656L11.1838 31.4779L11.7523 32.0464L12.5646 31.2342C12.727 31.0717 12.727 30.9093 12.5646 30.7469L12.4833 30.6656C12.4021 30.5844 12.3208 30.5438 12.2396 30.5438ZM21.1493 32.3597C21.3331 32.3905 21.4723 32.5555 21.4723 32.7811V32.9754L20.6261 33.8292C20.1608 34.2989 19.7293 34.7097 19.6673 34.7422C19.456 34.853 19.2369 34.7934 19.1186 34.5932C19.0375 34.4559 19.0301 34.3316 19.0951 34.2032C19.1837 34.0282 20.8195 32.421 20.9542 32.3765C21.0219 32.3542 21.0881 32.3495 21.1493 32.3597ZM4.98831 32.6907C5.02651 32.6888 5.06153 32.6922 5.08951 32.7027C5.21397 32.7487 6.92944 34.4606 6.97881 34.588C7.02567 34.709 6.96243 34.9275 6.85154 35.0279C6.72959 35.1382 6.51217 35.1521 6.36744 35.0588C6.13991 34.912 4.59922 33.324 4.57003 33.2062C4.53801 33.0769 4.57443 32.9311 4.66433 32.8286C4.73063 32.7531 4.8737 32.6967 4.98831 32.6907ZM17.8978 35.5683C18.0319 35.59 18.1711 35.6826 18.2348 35.8056C18.3638 36.0551 18.311 36.1342 17.4075 37.0457C16.9471 37.5101 16.5094 37.919 16.4349 37.9544C16.2386 38.0475 16.1324 38.0309 15.9679 37.8813C15.8427 37.7674 15.8072 37.5594 15.8872 37.4075C15.9933 37.2062 17.6341 35.6051 17.7684 35.5718C17.809 35.5617 17.8531 35.5611 17.8978 35.5683ZM8.19191 35.8993C8.22975 35.8991 8.26703 35.9053 8.30242 35.9184C8.43116 35.966 10.1455 37.6699 10.1946 37.7991C10.2398 37.918 10.1825 38.1477 10.0881 38.226C10.008 38.2925 9.8119 38.3383 9.68922 38.3191C9.5732 38.3009 7.92772 36.6996 7.82631 36.5061C7.73939 36.3403 7.75376 36.2025 7.87275 36.0611C7.9598 35.9577 8.07837 35.8997 8.19191 35.8993ZM12.844 37.7707C13.5467 37.7683 14.1972 37.8456 14.4131 37.9572C14.6581 38.0839 14.6998 38.4047 14.4976 38.6069C14.3578 38.7467 14.2832 38.752 13.7632 38.6592C13.5224 38.6162 13.2069 38.6043 12.635 38.6168C12.1815 38.6267 11.8037 38.6172 11.754 38.5945C11.5159 38.486 11.472 38.1249 11.6738 37.9353C11.8115 37.806 12.0426 37.7735 12.844 37.7707Z" fill="#0F0E0A"/>
</svg>
